<svg width="16" height="16" viewBox="0 0 16 16" fill="none" xmlns="http://www.w3.org/2000/svg">
<path d="M1.22667 2.564C0.564667 2.564 0.0266667 3.08867 0 3.74533C0.002 3.784 0.00266667 3.82267 0.008 3.86L0.801333 8.92467H5.05733V8.638H5.63933C6.40267 8.638 7.028 8.26 7.028 7.44267C7.028 6.62467 6.58867 6.21933 5.81 6.21933C5.00133 6.21933 4.56933 6.746 4.55667 7.386H3.72333C3.73933 6.29067 4.664 5.53933 5.81133 5.53933C7.09933 5.53933 7.86333 6.27 7.86333 7.46067C7.86333 8.21933 7.284 8.724 6.82133 8.92467H10.874V6.61267L9.128 7.19467V6.412L11.5593 5.53867H11.6947V8.92533H15.1987L15.992 3.86C15.9973 3.822 15.9987 3.78333 16 3.74533C15.9879 3.42803 15.8534 3.12774 15.6247 2.90748C15.396 2.68722 15.0909 2.56412 14.7733 2.564H1.22667ZM0.816667 9.028L0.409333 14.2793C0.397623 14.4478 0.420714 14.6169 0.47717 14.7761C0.533625 14.9352 0.622237 15.0811 0.737489 15.2045C0.852741 15.328 0.992168 15.4264 1.14709 15.4936C1.30201 15.5608 1.46912 15.5955 1.638 15.5953H14.3627C14.5315 15.5954 14.6985 15.5607 14.8534 15.4934C15.0082 15.4261 15.1476 15.3277 15.2627 15.2043C15.3779 15.0808 15.4665 14.935 15.5229 14.7759C15.5793 14.6168 15.6024 14.4478 15.5907 14.2793L15.1833 9.028H11.6947V12.5167H10.8733V9.028H7.00267C7.426 9.21267 7.96467 9.63333 7.96267 10.5313C7.96267 11.8313 6.99133 12.518 5.81333 12.518C4.79333 12.518 3.696 11.9747 3.66 10.6707H4.49867C4.51733 11.48 5.13533 11.8427 5.81333 11.8427C6.592 11.8427 7.13067 11.434 7.13067 10.5493C7.13067 9.87333 6.76133 9.29067 5.63867 9.29067H5.05667V9.028H0.816667ZM2.05067 0C1.37067 0 0.82 0.550667 0.82 1.23067L0.824 2.53533C0.95432 2.48749 1.09185 2.46224 1.23067 2.46067H14.7693C14.914 2.46067 15.0507 2.49067 15.18 2.536V1.23067C15.18 0.550667 14.6293 0 13.9493 0H2.05067ZM4.10267 0.614667C4.18347 0.614754 4.26347 0.630757 4.33809 0.661761C4.41272 0.692765 4.4805 0.738164 4.53758 0.795365C4.59466 0.852566 4.63991 0.920449 4.67075 0.995138C4.70159 1.06983 4.71742 1.14986 4.71733 1.23067C4.71698 1.39352 4.65209 1.54959 4.53687 1.66468C4.42166 1.77977 4.26552 1.84449 4.10267 1.84467C3.93959 1.84484 3.7831 1.78028 3.6676 1.66515C3.5521 1.55002 3.48702 1.39375 3.48667 1.23067C3.48658 1.14975 3.50245 1.06961 3.53338 0.99483C3.5643 0.920054 3.60968 0.852112 3.66689 0.794893C3.72411 0.737675 3.79205 0.692304 3.86683 0.661378C3.94161 0.630452 4.02175 0.614579 4.10267 0.614667ZM11.8973 0.614667C11.9783 0.614579 12.0584 0.630452 12.1332 0.661378C12.2079 0.692304 12.2759 0.737675 12.3331 0.794893C12.3903 0.852112 12.4357 0.920054 12.4666 0.99483C12.4975 1.06961 12.5134 1.14975 12.5133 1.23067C12.513 1.39375 12.4479 1.55002 12.3324 1.66515C12.2169 1.78028 12.0604 1.84484 11.8973 1.84467C11.7345 1.84449 11.5783 1.77977 11.4631 1.66468C11.3479 1.54959 11.283 1.39352 11.2827 1.23067C11.2826 1.14986 11.2984 1.06983 11.3293 0.995138C11.3601 0.920449 11.4053 0.852566 11.4624 0.795365C11.5195 0.738164 11.5873 0.692765 11.6619 0.661761C11.7365 0.630757 11.8165 0.614754 11.8973 0.614667Z" fill="white"/>
</svg>
