<svg xmlns="http://www.w3.org/2000/svg" viewBox="0 0 330.53 91.63"><defs><style>.cls-1{fill:#218100;}.cls-2{fill:#fff;}.cls-3{fill:#939393;}</style></defs><title>Asset 1</title><g id="Layer_2" data-name="Layer 2"><g id="Layer_1-2" data-name="Layer 1"><path class="cls-1" d="M186.24,0a28.78,28.78,0,0,0,5.26,4.07A19.49,19.49,0,0,1,200,17.14,10.71,10.71,0,0,1,196.39,28a1.93,1.93,0,0,1-.28.22,1.44,1.44,0,0,1-.29.09c-.95-5.14-.6-10.69-4.76-14.79a20.93,20.93,0,0,1,2.67,10,17.21,17.21,0,0,1-.33,4.05,24.52,24.52,0,0,1-5.07-4.72,30,30,0,0,1-5.57-10.76C181.64,7.5,182.45,3.36,186,0Z"/><path class="cls-2" d="M256.79,20.71a19.51,19.51,0,0,1,9.43-2.47c9.39.09,17.64,7.89,17.82,17.28.21,10.8.06,21.6.09,32.4,0,.67-.25.79-.83.78-2.44,0-4.88-.06-7.32,0-.9,0-1-.3-1-1.09q0-15.48,0-31a9.08,9.08,0,0,0-12.92-8.34,8.58,8.58,0,0,0-5.25,8.19c-.05,10.32,0,20.64,0,31,0,1-.16,1.29-1.2,1.25-2.36-.09-4.72-.07-7.08,0-.77,0-.91-.23-.9-.94q0-24.18,0-48.36c0-.86.31-1,1-.94,2.28,0,4.57.08,6.84,0,1.13-.05,1.49.32,1.32,1.37A6.15,6.15,0,0,0,256.79,20.71Z"/><path class="cls-2" d="M309.6,52.32q5.5-16.3,11-32.62a1.21,1.21,0,0,1,1.41-1c2.8.05,5.6,0,8.54,0-.3.93-.56,1.79-.84,2.63q-7.76,23.06-15.5,46.1c-.32,1-.71,1.31-1.74,1.27-2.19-.09-4.39,0-6.59,0-.53,0-.85-.08-1.05-.68q-8.19-24.43-16.41-48.84a2.65,2.65,0,0,1-.07-.46h9.1c.73,0,.63.63.77,1q5.37,15.88,10.72,31.76c.06.19.14.38.21.56S309.3,52.51,309.6,52.32Z"/><path class="cls-2" d="M158.7,67.19A13.84,13.84,0,0,1,152,68.94a13,13,0,0,1-13-12.72c-.1-7.51,0-15,0-22.54,0-.72.24-.87.89-.85,1.6,0,3.2.06,4.79,0,.85,0,1,.3,1,1q0,11,0,21.95a6.5,6.5,0,1,0,13,.08q0-11,0-22c0-.88.19-1.16,1.1-1.11a43.35,43.35,0,0,0,4.56,0c.82,0,1,.25,1,1,0,7.28,0,14.56,0,21.83,0,4,0,8.08,0,12.11,0,.77-.16,1.07-1,1a39.66,39.66,0,0,0-4.08,0C159.08,68.87,158.3,68.73,158.7,67.19Z"/><path class="cls-2" d="M11.88,68.89c-4.63.08-7.51-.63-10.52-3.32-.68-.6-.82-1-.07-1.63,1.2-1.06,2.3-2.22,3.41-3.37.35-.37.58-.41,1,0A6.29,6.29,0,0,0,11,62.45c1-.09,2.08,0,3.12,0a4.25,4.25,0,0,0,4.34-4.06,4.3,4.3,0,0,0-4.31-4.24c-1.2,0-2.4,0-3.59,0A10.84,10.84,0,0,1,0,43.61a10.6,10.6,0,0,1,9.88-11,32.08,32.08,0,0,1,5.63,0c2.92.31,5.2,1.88,7.3,3.8.4.36.21.57-.08.85C21.47,38.49,20.21,39.71,19,41c-.4.42-.62.27-.95-.06-2.57-2.57-5.74-2-8.79-1.45-1.84.36-2.86,2.44-2.59,4.33a4.26,4.26,0,0,0,3.87,3.79c1.23.08,2.48,0,3.72,0a10.79,10.79,0,0,1,10.7,9.54,10.61,10.61,0,0,1-8.88,11.66C14.57,68.94,13.26,68.87,11.88,68.89Z"/><path class="cls-2" d="M30,48.42c0-2.63,0-5.27,0-7.91,0-.82-.19-1.11-1.05-1.09-1.64,0-1.64,0-1.64-1.62,0-1.36,0-2.72,0-4.08,0-.65.11-1,.83-.87.31,0,.64,0,.95,0,.78.12.93-.24.92-.95,0-2.2,0-4.4,0-6.59,0-.67.16-.92.86-.9q2.46.07,4.92,0c.71,0,.86.25.85.9,0,2.12,0,4.24,0,6.36,0,.9.17,1.22,1.16,1.2,3.19-.07,6.39,0,9.59,0,.79,0,1,.2,1,1a43.16,43.16,0,0,0,0,4.55c0,1-.32,1.09-1.16,1.08-3.16-.05-6.32,0-9.47,0-.93,0-1.12.28-1.11,1.15,0,5,0,10,0,15,0,2.79,1.11,5,3.64,6.11,2.69,1.21,5.47,1.39,7.86-.75.85-.75,1.29-.63,2,.14,1,1.1,2,2.14,3.11,3.16.42.41.41.66,0,1A12.48,12.48,0,0,1,44.73,69c-4.11.12-7.77-.81-10.76-3.74A12.71,12.71,0,0,1,30,56c0-2.52,0-5,0-7.56Z"/><path class="cls-2" d="M113.07,48.49c0-2.63,0-5.27,0-7.91,0-.87-.17-1.2-1.11-1.16-1.59.07-1.59,0-1.59-1.55,0-1.36,0-2.72,0-4.08,0-.69.08-1,.88-1,1.81,0,1.82,0,1.82-1.81s0-3.84,0-5.75c0-.61.13-.86.79-.84,1.68,0,3.36,0,5,0,.64,0,.81.2.8.82,0,2.12.07,4.24-.05,6.36-.06,1.13.35,1.29,1.35,1.27,3.15-.06,6.31,0,9.47,0,.73,0,1,.16.93.92-.06,1.59-.06,3.2,0,4.79,0,.78-.25.92-1,.91-3.24,0-6.48,0-9.71,0-.86,0-1.07.25-1.06,1.08,0,5.08,0,10.15,0,15.23a7.11,7.11,0,0,0,11.91,4.87c.48-.47.75-.36,1.15.07q1.68,1.78,3.45,3.5c.45.43.48.7,0,1.14A12.53,12.53,0,0,1,127.72,69c-4.11.11-7.77-.84-10.75-3.78a12.72,12.72,0,0,1-3.89-9.13c0-2.52,0-5,0-7.56Z"/><path class="cls-2" d="M93,34.44a15.12,15.12,0,0,1,10.55-1.56,12.77,12.77,0,0,1,6.25,3.58c.37.35.3.56,0,.86-1.27,1.22-2.55,2.43-3.77,3.69-.65.67-.93,0-1.23-.29-2.65-2.62-9.19-2-11,2.19a7.48,7.48,0,0,0-.64,3c0,7.24,0,14.48,0,21.72,0,.8-.14,1.11-1,1.06a41.1,41.1,0,0,0-4.44,0c-.92.05-1.19-.2-1.19-1.17,0-10.88,0-21.75,0-32.63,0-2.13,0-2.13,2.13-2.13,1,0,2,0,3,0S93.59,32.71,93,34.44Z"/><path class="cls-1" d="M187.56,23.58c-2.45-1.35-4.5-2.89-7.22-2.82,2,1.24,4.31,2,5.37,4.38A17.45,17.45,0,0,1,171,21a9.48,9.48,0,0,1-2.9-4.31c-.47-1.38-.26-1.7,1.13-2,2.53-.61,5,.06,7.47.42C181.84,15.79,185.11,18.89,187.56,23.58Z"/><path class="cls-3" d="M309.6,52.32c0,.23-.05.43-.29.35s-.21-.37-.18-.6Z"/><path class="cls-2" d="M239.13,19.84c0-1-.3-1.17-1.2-1.14-1.91.07-3.83,0-5.75,0-2.1,0-2.1,0-2.32,2l-1-.45c-11.95-5.66-25.76,2.55-26.2,15.66-.17,5.16-.16,10.33,0,15.48a18.14,18.14,0,0,0,20.93,17.31,21,21,0,0,0,6.19-2c.07.13.13.2.13.26,0,2.88,0,5.76,0,8.64a6.6,6.6,0,0,1-5.27,6.54c-1.86.42-3.75.11-5.62.19a8.59,8.59,0,0,1-6.17-2.18c-.6-.53-.87-.34-1.32.12-1.45,1.49-2.94,2.94-4.41,4.41s-1.48,1.46.17,2.78c5.8,4.62,12.56,4.74,19.29,3.51,7.56-1.38,12.45-7.83,12.47-15.58,0-13,0-26.07,0-39.11C239.1,30.8,239.07,25.32,239.13,19.84Zm-9.18,31a9.08,9.08,0,0,1-18.15.3c-.11-4.92-.1-9.84,0-14.76a9.08,9.08,0,0,1,18.15.31c0,2.4,0,4.79,0,7.19Z"/><path class="cls-2" d="M197.42,45.39a13.12,13.12,0,0,0-19.71-11c.67-2-.58-1.61-1.55-1.61-1.28,0-2.56.06-3.84,0-.91-.06-1.13.23-1.12,1.13,0,5.2,0,10.4,0,15.59,0,11.4,0,22.79,0,34.19,0,1.16.35,1.39,1.39,1.33a30.78,30.78,0,0,1,4,0c1,.07,1.33-.17,1.31-1.27-.07-5.43,0-10.87,0-16.41l1.27.56a13.11,13.11,0,0,0,18.33-11.7C197.51,52.59,197.51,49,197.42,45.39Zm-6.59,10.37a6.51,6.51,0,1,1-13-.06c0-3.28,0-6.55,0-9.83a6.5,6.5,0,1,1,13,0c0,1.67,0,3.35,0,5S190.85,54.12,190.83,55.76Z"/><path class="cls-2" d="M80.88,55.58c0-4,0-7.92,0-11.88a11.16,11.16,0,0,0-9.1-11,42.24,42.24,0,0,0-6.47-.13c-3.31,0-5.94,1.62-8.31,3.76-.35.32-.33.53,0,.86q1.89,1.83,3.72,3.74c.39.4.63.47,1.05,0A6.1,6.1,0,0,1,67,39.09a21.18,21.18,0,0,0,2.76,0,4,4,0,0,1,3.71,2c1.11,1.65.85,3.52.86,5.34,0,.48-.32.36-.58.25-2.7-1.07-5.52-.85-8.3-.7A11.31,11.31,0,0,0,64,68.43a18.51,18.51,0,0,0,9.7-.52c.2-.08.55-.32.56,0,0,1.13.85.72,1.38.73,1.32,0,2.65-.07,4,0s1.34-.36,1.32-1.38C80.85,63.42,80.88,59.5,80.88,55.58Zm-11.1,6.58a29.07,29.07,0,0,1-4,0,4.85,4.85,0,0,1,.23-9.69c.59,0,1.2,0,1.79,0s1.2,0,1.8,0a4.85,4.85,0,0,1,.14,9.69Z"/></g></g></svg>