<?xml version="1.0" encoding="UTF-8"?>
<svg width="188px" height="188px" viewBox="0 0 140 188" version="1.1" xmlns="http://www.w3.org/2000/svg" xmlns:xlink="http://www.w3.org/1999/xlink">
    <g id="Page-1" stroke="none" stroke-width="1" fill="none" fill-rule="evenodd">
        <g id="Group" transform="translate(10.000000, 10.000000)">
            <path d="M55.8449887,162.781345 C44.863257,146.375895 36.2337683,134.890456 22.7266733,117.975096 C9.47724222,101.382417 6.12694647,96.8873178 2.20026541,89.6150001 C-2.7580037,80.4321539 -5,71.4243159 -5,60 C-5,24.1014913 24.1014913,-5 60,-5 C95.8985087,-5 125,24.1014913 125,60 C125,71.4292251 122.774493,80.4022377 117.8379,89.5437039 C113.931694,96.777124 110.675003,101.142625 97.352088,117.827213 C83.9009458,134.672383 75.1961886,146.268528 64.1564566,162.779185 L60.0023372,168.991948 L55.8449887,162.781345 Z" id="Oval" stroke="#FFFFFF" stroke-width="10" fill="#9632f3"></path>
            <circle id="Oval" fill="#FFFFFF" cx="60" cy="60" r="24"></circle>
        </g>
    </g>
</svg>