<?xml version="1.0" encoding="UTF-8"?>
<svg width="112px" height="148px" viewBox="0 0 112 148" version="1.1" xmlns="http://www.w3.org/2000/svg" xmlns:xlink="http://www.w3.org/1999/xlink">
    <!-- Generator: Sketch 53.2 (72643) - https://sketchapp.com -->
    <title>Group 2</title>
    <desc>Created with Sketch.</desc>
    <g id="Page-1" stroke="none" stroke-width="1" fill="none" fill-rule="evenodd">
        <g id="Group-2" transform="translate(6.000000, 6.000000)">
            <path d="M47.4686897,132.676798 C37.929314,117.679652 29.5963098,106.409106 19.8583693,94.6362625 C18.2559188,92.6989536 11.7276814,84.9456197 10.2000303,83.0770003 C7.02423612,79.1923761 4.8550564,76.2641009 3.08912421,73.3757986 C-1.17158254,66.4071225 -3,59.5825212 -3,50 C-3,20.7289083 20.7289083,-3 50,-3 C79.2710917,-3 103,20.7289083 103,50 C103,59.7360059 101.454729,66.4813821 97.6982777,73.2643194 C94.8084326,78.4824458 93.0669471,80.7156004 81.5395522,94.6374359 C70.6690269,107.765959 62.6420337,118.132723 52.4635043,132.778743 L49.8894612,136.482567 L47.4686897,132.676798 Z" id="Oval" stroke="#FFFFFF" stroke-width="6" fill="#218100"></path>
            <g id="Group" transform="translate(16.000000, 17.000000)" fill="#FFFFFF" fill-rule="nonzero">
                <path d="M34.4499756,0 C37.4496679,2.91186826 40.7793999,5.46879301 44.37249,7.61956906 C52.9148398,13.2065842 58.7252421,22.0733018 60.4069715,32.088308 C62.2816353,39.6018165 59.6310695,47.5151818 53.5970329,52.4196397 C53.4341332,52.5727896 53.2573159,52.7106658 53.0688382,52.8315083 C52.8929782,52.9066489 52.7096061,52.9631267 52.5217794,53 C50.7296903,43.3772519 51.3899336,32.9869304 43.5424698,25.3111975 C46.7741964,31.0347366 48.5060545,37.4719965 48.5791834,44.0324974 C48.6741041,46.5754018 48.4651429,49.1205128 47.9566682,51.6146238 C44.3633574,49.1331387 41.1431999,46.157973 38.3925716,42.7781703 C33.5460819,36.8425722 29.9707419,29.9880935 27.8852702,22.6340516 C25.7724915,14.0409749 27.3004832,6.29035676 33.9972373,0 L34.4499756,0 Z" id="Path"></path>
                <path d="M37,43.6495088 C32.3952423,41.1894039 28.5422817,38.3830621 23.4300609,38.5106231 C27.1890468,40.7702749 31.5306755,42.1552228 33.522938,46.4922966 C23.6010314,48.2316888 13.4053693,45.4495278 5.87559681,38.947975 C3.33993866,36.8730672 1.45221428,34.1528911 0.425067271,31.0938625 C-0.458294413,28.5790886 -0.0636008948,27.9959527 2.5488943,27.4492627 C7.30401145,26.3376598 11.946359,27.5586007 16.5887066,28.2146287 C26.2493003,29.4537926 32.3952423,35.1029223 37,43.6495088 Z" id="Path"></path>
            </g>
        </g>
    </g>
</svg>