<?xml version="1.0" standalone="no"?>
<!DOCTYPE svg PUBLIC "-//W3C//DTD SVG 20010904//EN"
 "http://www.w3.org/TR/2001/REC-SVG-20010904/DTD/svg10.dtd">
<svg version="1.0" xmlns="http://www.w3.org/2000/svg"
 width="512.000000pt" height="512.000000pt" viewBox="0 0 512.000000 512.000000"
 preserveAspectRatio="xMidYMid meet">
<metadata>
Created by potrace 1.11, written by Peter Selinger 2001-2013
</metadata>
<g transform="translate(0.000000,512.000000) scale(0.100000,-0.100000)"
fill="#000000" stroke="none">
<path d="M2845 4562 c-135 -148 -254 -323 -336 -497 -63 -133 -127 -334 -144
-450 -3 -23 -7 -50 -9 -60 -23 -120 -23 -384 -1 -535 2 -14 7 -45 10 -70 19
-138 85 -366 158 -544 211 -522 623 -1076 1157 -1556 46 -41 88 -79 94 -85 59
-54 136 -115 145 -115 6 0 11 8 12 18 0 9 2 37 5 62 10 116 13 199 13 375 0
105 -1 206 -4 225 -2 19 -6 68 -10 109 -13 151 -61 419 -99 546 -1 6 -8 30
-15 55 -35 124 -92 295 -152 455 -21 54 -37 101 -35 103 5 4 145 -262 196
-374 102 -219 184 -461 245 -724 7 -27 44 -214 50 -250 19 -112 24 -150 30
-195 4 -27 8 -61 10 -75 2 -14 6 -54 10 -90 3 -36 8 -76 10 -90 2 -14 7 -59
11 -100 3 -41 8 -84 9 -95 1 -11 3 -32 4 -47 0 -16 6 -28 12 -28 7 0 49 25 95
55 96 64 208 171 281 270 115 153 220 405 248 592 3 21 7 50 10 63 24 124 24
447 0 580 -2 14 -7 42 -10 63 -37 263 -161 614 -307 871 -48 84 -177 285 -202
313 -6 7 -15 18 -21 25 -56 72 -168 198 -231 260 -143 139 -137 134 -482 396
-100 76 -199 152 -219 168 -246 196 -311 251 -414 354 l-75 75 -49 -53z"/>
<path d="M847 2444 c-1 -1 -56 -5 -122 -8 -66 -4 -127 -9 -135 -11 -8 -2 -37
-6 -65 -10 -52 -6 -148 -21 -200 -31 -16 -3 -33 -8 -37 -12 -10 -10 34 -186
68 -276 157 -415 509 -764 977 -969 96 -42 289 -111 343 -122 13 -3 36 -7 52
-10 15 -3 36 -9 47 -12 22 -8 36 -11 80 -17 17 -3 42 -8 57 -11 167 -34 615
-40 763 -11 11 2 40 7 65 10 72 10 79 12 86 19 8 8 -119 169 -205 260 -117
124 -307 258 -476 337 -36 17 -65 32 -65 35 0 2 6 2 13 0 6 -3 64 -21 127 -40
269 -84 479 -205 674 -389 27 -25 50 -45 52 -44 5 6 -74 187 -115 264 -317
581 -866 938 -1583 1029 -93 12 -393 26 -401 19z"/>
</g>
</svg>
