<svg viewBox="0 0 330.53 91.63" xmlns="http://www.w3.org/2000/svg"><path d="m186.24 0a28.78 28.78 0 0 0 5.26 4.07 19.49 19.49 0 0 1 8.5 13.07 10.71 10.71 0 0 1 -3.61 10.86 1.93 1.93 0 0 1 -.28.22 1.44 1.44 0 0 1 -.29.09c-.95-5.14-.6-10.69-4.76-14.79a20.93 20.93 0 0 1 2.67 10 17.21 17.21 0 0 1 -.33 4.05 24.52 24.52 0 0 1 -5.07-4.72 30 30 0 0 1 -5.57-10.76c-1.12-4.59-.31-8.73 3.24-12.09z" fill="#218100"/><g fill="#fff"><path d="m256.79 20.71a19.51 19.51 0 0 1 9.43-2.47c9.39.09 17.64 7.89 17.82 17.28.21 10.8.06 21.6.09 32.4 0 .67-.25.79-.83.78-2.44 0-4.88-.06-7.32 0-.9 0-1-.3-1-1.09q0-15.48 0-31a9.08 9.08 0 0 0 -12.92-8.34 8.58 8.58 0 0 0 -5.25 8.19c-.05 10.32 0 20.64 0 31 0 1-.16 1.29-1.2 1.25-2.36-.09-4.72-.07-7.08 0-.77 0-.91-.23-.9-.94q0-24.18 0-48.36c0-.86.31-1 1-.94 2.28 0 4.57.08 6.84 0 1.13-.05 1.49.32 1.32 1.37a6.15 6.15 0 0 0 0 .87z"/><path d="m309.6 52.32q5.5-16.3 11-32.62a1.21 1.21 0 0 1 1.41-1c2.8.05 5.6 0 8.54 0-.3.93-.56 1.79-.84 2.63q-7.76 23.06-15.5 46.1c-.32 1-.71 1.31-1.74 1.27-2.19-.09-4.39 0-6.59 0-.53 0-.85-.08-1.05-.68q-8.19-24.43-16.41-48.84a2.65 2.65 0 0 1 -.07-.46h9.1c.73 0 .63.63.77 1q5.37 15.88 10.72 31.76c.06.19.14.38.21.56s.15.47.45.28z"/><path d="m158.7 67.19a13.84 13.84 0 0 1 -6.7 1.75 13 13 0 0 1 -13-12.72c-.1-7.51 0-15 0-22.54 0-.72.24-.87.89-.85 1.6 0 3.2.06 4.79 0 .85 0 1 .3 1 1q0 11 0 21.95a6.5 6.5 0 1 0 13 .08q0-11 0-22c0-.88.19-1.16 1.1-1.11a43.35 43.35 0 0 0 4.56 0c.82 0 1 .25 1 1v21.83 12.11c0 .77-.16 1.07-1 1a39.66 39.66 0 0 0 -4.08 0c-1.18.18-1.96.04-1.56-1.5z"/><path d="m11.88 68.89c-4.63.08-7.51-.63-10.52-3.32-.68-.6-.82-1-.07-1.63 1.2-1.06 2.3-2.22 3.41-3.37.35-.37.58-.41 1 0a6.29 6.29 0 0 0 5.3 1.88c1-.09 2.08 0 3.12 0a4.25 4.25 0 0 0 4.34-4.06 4.3 4.3 0 0 0 -4.31-4.24c-1.2 0-2.4 0-3.59 0a10.84 10.84 0 0 1 -10.56-10.54 10.6 10.6 0 0 1 9.88-11 32.08 32.08 0 0 1 5.63 0c2.92.31 5.2 1.88 7.3 3.8.4.36.21.57-.08.85-1.26 1.23-2.52 2.45-3.73 3.74-.4.42-.62.27-.95-.06-2.57-2.57-5.74-2-8.79-1.45-1.84.36-2.86 2.44-2.59 4.33a4.26 4.26 0 0 0 3.87 3.79c1.23.08 2.48 0 3.72 0a10.79 10.79 0 0 1 10.7 9.54 10.61 10.61 0 0 1 -8.88 11.66c-1.51.13-2.82.06-4.2.08z"/><path d="m30 48.42c0-2.63 0-5.27 0-7.91 0-.82-.19-1.11-1.05-1.09-1.64 0-1.64 0-1.64-1.62 0-1.36 0-2.72 0-4.08 0-.65.11-1 .83-.87h.95c.78.12.93-.24.92-.95 0-2.2 0-4.4 0-6.59 0-.67.16-.92.86-.9q2.46.07 4.92 0c.71 0 .86.25.85.9v6.36c0 .9.17 1.22 1.16 1.2 3.19-.07 6.39 0 9.59 0 .79 0 1 .2 1 1a43.16 43.16 0 0 0 0 4.55c0 1-.32 1.09-1.16 1.08-3.16-.05-6.32 0-9.47 0-.93 0-1.12.28-1.11 1.15v15c0 2.79 1.11 5 3.64 6.11 2.69 1.21 5.47 1.39 7.86-.75.85-.75 1.29-.63 2 .14 1 1.1 2 2.14 3.11 3.16.42.41.41.66 0 1a12.48 12.48 0 0 1 -8.53 3.69c-4.11.12-7.77-.81-10.76-3.74a12.71 12.71 0 0 1 -3.97-9.26c0-2.52 0-5 0-7.56z"/><path d="m113.07 48.49c0-2.63 0-5.27 0-7.91 0-.87-.17-1.2-1.11-1.16-1.59.07-1.59 0-1.59-1.55 0-1.36 0-2.72 0-4.08 0-.69.08-1 .88-1 1.81 0 1.82 0 1.82-1.81s0-3.84 0-5.75c0-.61.13-.86.79-.84h5c.64 0 .81.2.8.82 0 2.12.07 4.24-.05 6.36-.06 1.13.35 1.29 1.35 1.27 3.15-.06 6.31 0 9.47 0 .73 0 1 .16.93.92-.06 1.59-.06 3.2 0 4.79 0 .78-.25.92-1 .91-3.24 0-6.48 0-9.71 0-.86 0-1.07.25-1.06 1.08v15.23a7.11 7.11 0 0 0 11.91 4.87c.48-.47.75-.36 1.15.07q1.68 1.78 3.45 3.5c.45.43.48.7 0 1.14a12.53 12.53 0 0 1 -8.38 3.65c-4.11.11-7.77-.84-10.75-3.78a12.72 12.72 0 0 1 -3.89-9.13c0-2.52 0-5 0-7.56z"/><path d="m93 34.44a15.12 15.12 0 0 1 10.55-1.56 12.77 12.77 0 0 1 6.25 3.58c.37.35.3.56 0 .86-1.27 1.22-2.55 2.43-3.77 3.69-.65.67-.93 0-1.23-.29-2.65-2.62-9.19-2-11 2.19a7.48 7.48 0 0 0 -.64 3v21.72c0 .8-.14 1.11-1 1.06a41.1 41.1 0 0 0 -4.44 0c-.92.05-1.19-.2-1.19-1.17 0-10.88 0-21.75 0-32.63 0-2.13 0-2.13 2.13-2.13h3s1.93-.05 1.34 1.68z"/></g><path d="m187.56 23.58c-2.45-1.35-4.5-2.89-7.22-2.82 2 1.24 4.31 2 5.37 4.38a17.45 17.45 0 0 1 -14.71-4.14 9.48 9.48 0 0 1 -2.9-4.31c-.47-1.38-.26-1.7 1.13-2 2.53-.61 5 .06 7.47.42 5.14.68 8.41 3.78 10.86 8.47z" fill="#218100"/><path d="m309.6 52.32c0 .23-.05.43-.29.35s-.21-.37-.18-.6z" fill="#939393"/><path d="m239.13 19.84c0-1-.3-1.17-1.2-1.14-1.91.07-3.83 0-5.75 0-2.1 0-2.1 0-2.32 2l-1-.45c-11.95-5.66-25.76 2.55-26.2 15.66-.17 5.16-.16 10.33 0 15.48a18.14 18.14 0 0 0 20.93 17.31 21 21 0 0 0 6.19-2c.07.13.13.2.13.26v8.64a6.6 6.6 0 0 1 -5.27 6.54c-1.86.42-3.75.11-5.62.19a8.59 8.59 0 0 1 -6.17-2.18c-.6-.53-.87-.34-1.32.12-1.45 1.49-2.94 2.94-4.41 4.41s-1.48 1.46.17 2.78c5.8 4.62 12.56 4.74 19.29 3.51 7.56-1.38 12.45-7.83 12.47-15.58 0-13 0-26.07 0-39.11.05-5.48.02-10.96.08-16.44zm-9.18 31a9.08 9.08 0 0 1 -18.15.3c-.11-4.92-.1-9.84 0-14.76a9.08 9.08 0 0 1 18.15.31v7.19z" fill="#fff"/><path d="m197.42 45.39a13.12 13.12 0 0 0 -19.71-11c.67-2-.58-1.61-1.55-1.61-1.28 0-2.56.06-3.84 0-.91-.06-1.13.23-1.12 1.13v15.59 34.19c0 1.16.35 1.39 1.39 1.33a30.78 30.78 0 0 1 4 0c1 .07 1.33-.17 1.31-1.27-.07-5.43 0-10.87 0-16.41l1.27.56a13.11 13.11 0 0 0 18.33-11.7c.01-3.61.01-7.2-.08-10.81zm-6.59 10.37a6.51 6.51 0 1 1 -13-.06c0-3.28 0-6.55 0-9.83a6.5 6.5 0 1 1 13 0v5s.02 3.25 0 4.89z" fill="#fff"/><path d="m80.88 55.58c0-4 0-7.92 0-11.88a11.16 11.16 0 0 0 -9.1-11 42.24 42.24 0 0 0 -6.47-.13c-3.31 0-5.94 1.62-8.31 3.76-.35.32-.33.53 0 .86q1.89 1.83 3.72 3.74c.39.4.63.47 1.05 0a6.1 6.1 0 0 1 5.23-1.84 21.18 21.18 0 0 0 2.76 0 4 4 0 0 1 3.71 2c1.11 1.65.85 3.52.86 5.34 0 .48-.32.36-.58.25-2.7-1.07-5.52-.85-8.3-.7a11.31 11.31 0 0 0 -1.45 22.45 18.51 18.51 0 0 0 9.7-.52c.2-.08.55-.32.56 0 0 1.13.85.72 1.38.73 1.32 0 2.65-.07 4 0s1.34-.36 1.32-1.38c-.11-3.84-.08-7.76-.08-11.68zm-11.1 6.58a29.07 29.07 0 0 1 -4 0 4.85 4.85 0 0 1 .23-9.69h1.79s1.2 0 1.8 0a4.85 4.85 0 0 1 .14 9.69z" fill="#fff"/></svg>