<svg width="30" height="39" viewBox="0 0 30 39" fill="none" xmlns="http://www.w3.org/2000/svg">
<path d="M28.7488 0.000488281H22.8978C18.0708 0.000488281 14.1214 3.50178 14.1214 7.78113V8.64565V12.4063C12.5124 10.634 10.0745 9.51016 7.29533 9.51016H1.44439C0.908058 9.51016 0.469238 9.89919 0.469238 10.3747V11.2392C0.469238 15.5185 4.41862 19.0198 9.24564 19.0198H14.1214V21.6134H6.32017C4.71117 21.6134 3.39471 22.7805 3.39471 24.2069V25.0714C3.39471 26.2385 4.27235 27.2327 5.54005 27.5785L7.97794 36.9153C8.27049 38.0824 9.44067 38.9469 10.8059 38.9469H19.3873C20.7525 38.9469 21.9227 38.1256 22.2152 36.9153L24.6531 27.5785C25.8721 27.276 26.7985 26.2818 26.7985 25.0714V24.2069C26.7985 22.7805 25.482 21.6134 23.873 21.6134H16.0717V18.1553V17.2908V9.51016H20.9475C25.7745 9.51016 29.7239 6.00887 29.7239 1.72952V0.865004C29.7239 0.38952 29.2851 0.000488281 28.7488 0.000488281ZM20.3624 36.4831C20.2649 36.8721 19.8748 37.1747 19.436 37.1747H10.8059C10.3671 37.1747 9.97701 36.9153 9.87949 36.4831L7.53912 27.665H22.654L20.3624 36.4831ZM24.8481 24.2069V25.0714C24.8481 25.5469 24.4093 25.936 23.873 25.936H6.32017C5.78384 25.936 5.34502 25.5469 5.34502 25.0714V24.2069C5.34502 23.7314 5.78384 23.3424 6.32017 23.3424H23.873C24.4093 23.3424 24.8481 23.7314 24.8481 24.2069ZM9.24564 17.2908C5.49129 17.2908 2.41955 14.5676 2.41955 11.2392H7.29533C11.0497 11.2392 14.1214 13.9624 14.1214 17.2908H9.24564ZM20.9475 7.78113H16.0717C16.0717 4.45274 19.1435 1.72952 22.8978 1.72952H27.7736C27.7736 5.05791 24.7019 7.78113 20.9475 7.78113Z" fill="#221000"/>
<path fill-rule="evenodd" clip-rule="evenodd" d="M14.1214 20.1696H14.5118V13.3859C14.5118 12.482 14.3752 11.61 14.1214 10.7894V12.4054C12.5124 10.6331 10.0745 9.50928 7.29533 9.50928H1.44439C0.908058 9.50928 0.469238 9.89831 0.469238 10.3738V11.2383C0.469238 15.5177 4.41862 19.019 9.24564 19.019H14.1214V20.1696ZM2.41955 11.2383C2.41955 14.5667 5.49129 17.2899 9.24564 17.2899H14.1214C14.1214 13.9615 11.0497 11.2383 7.29533 11.2383H2.41955Z" fill="#218100"/>
<path fill-rule="evenodd" clip-rule="evenodd" d="M16.0719 9.79536H14.1216V8.64516V7.78064C14.1216 3.50129 18.071 0 22.898 0H28.7489C29.2853 0 29.7241 0.389032 29.7241 0.864516V1.72903C29.7241 6.00838 25.7747 9.50967 20.9477 9.50967H16.0719V9.79536ZM16.0719 7.78064H20.9477C24.702 7.78064 27.7738 5.05742 27.7738 1.72903H22.898C19.1436 1.72903 16.0719 4.45226 16.0719 7.78064Z" fill="#218100"/>
</svg>
