<svg width="36" height="34" viewBox="0 0 36 34" fill="none" xmlns="http://www.w3.org/2000/svg">
<path fill-rule="evenodd" clip-rule="evenodd" d="M16.4676 20.433V16.0124C7.42973 15.4612 0.272949 8.97488 0.272949 1.07035C0.272949 0.481657 0.833532 0 1.51869 0C8.8561 0 15.1409 3.91213 17.7133 9.43513C20.2858 3.91213 26.5705 0 33.9079 0C34.5931 0 35.1537 0.481657 35.1537 1.07035C35.1537 8.97488 27.9969 15.4612 18.9591 16.0124V20.433L22.5655 23.5691C25.2251 25.8864 25.2251 29.654 22.5655 31.9713C21.2699 33.0952 19.5445 33.716 17.7133 33.716C15.8821 33.716 14.1567 33.0952 12.8612 31.9713C10.1953 29.654 10.1953 25.8864 12.8612 23.5691L16.4676 20.433ZM17.7133 31.5753C18.8781 31.5753 19.9681 31.1793 20.7903 30.4675C22.5032 28.9797 22.5032 26.5607 20.7903 25.0729L17.7133 22.3971L14.6363 25.0729C12.9297 26.5607 12.9297 28.9797 14.6363 30.4675C15.4585 31.1793 16.5548 31.5753 17.7133 31.5753ZM32.6061 2.18886C31.9833 8.38084 26.2217 13.3312 19.0151 13.8664C19.638 7.6744 25.3995 2.72404 32.6061 2.18886ZM16.4115 13.8664C9.20491 13.3312 3.44336 8.38084 2.82049 2.18886C10.0271 2.72404 15.7886 7.6744 16.4115 13.8664Z" fill="#221000"/>
<path fill-rule="evenodd" clip-rule="evenodd" d="M18.9591 16.0553H16.4676V16.0124C7.42973 15.4612 0.272949 8.97488 0.272949 1.07035C0.272949 0.481657 0.833532 0 1.51869 0C8.8561 0 15.1409 3.91213 17.7133 9.43513C20.2858 3.91213 26.5705 0 33.9079 0C34.5931 0 35.1537 0.481657 35.1537 1.07035C35.1537 8.97488 27.9969 15.4612 18.9591 16.0124V16.0553ZM32.6061 2.18886C31.9833 8.38084 26.2217 13.3312 19.0151 13.8664C19.638 7.6744 25.3995 2.72404 32.6061 2.18886ZM16.4115 13.8664C9.20491 13.3312 3.44336 8.38084 2.82049 2.18886C10.0271 2.72404 15.7886 7.6744 16.4115 13.8664Z" fill="#218100"/>
</svg>
