<svg width="45" height="40" viewBox="0 0 45 40" fill="none" xmlns="http://www.w3.org/2000/svg">
<path d="M38.6651 33.1974H29.2909V28.5236C29.883 28.742 30.5737 28.8294 31.2151 28.8294C34.3234 28.8294 36.889 26.6017 36.889 23.8062C36.889 21.9279 35.6555 20.1807 33.7313 19.3508C33.0406 17.2105 30.8204 15.7253 28.3042 15.7253C25.788 15.7253 23.5678 17.2105 22.877 19.3508C21.0022 20.1807 19.7194 21.9279 19.7194 23.8062C19.7194 26.558 22.2356 28.8294 25.3932 28.8294C26.0346 28.8294 26.7254 28.6983 27.3174 28.5236V33.1974H19.7687C19.3247 31.7123 17.7952 30.5766 15.9697 30.5766C15.0817 30.5766 14.2429 30.8387 13.6015 31.2755C13.3055 30.9697 12.9108 30.7076 12.5161 30.4892V19.0887C13.5522 18.914 14.4896 18.4772 15.279 17.822C15.575 17.8657 15.9204 17.8657 16.2164 17.8657C19.7687 17.8657 22.6303 15.3322 22.6303 12.1872C22.6303 11.0516 22.2356 9.91588 21.4956 8.95492C21.5942 8.56179 21.6436 8.21235 21.6436 7.81923C21.6436 5.15474 19.374 2.92706 16.4138 2.6213C15.3777 1.04881 13.4535 0.000488281 11.2826 0.000488281C9.11178 0.000488281 7.08893 1.04881 6.10217 2.75234C3.3886 3.2765 1.41509 5.37314 1.41509 7.86291C1.41509 8.25603 1.46442 8.64915 1.5631 8.9986C0.823032 9.95956 0.42833 11.0516 0.42833 12.2309C0.42833 15.3759 3.28992 17.9093 6.84224 17.9093C6.99026 17.9093 7.18761 17.9093 7.33562 17.9093C8.2237 18.6082 9.35847 19.045 10.5426 19.1761V29.7903C10.1972 29.7467 9.90118 29.703 9.55582 29.703C6.99026 29.703 4.81939 31.2755 4.27668 33.4595C1.85913 34.1583 0.181641 36.1676 0.181641 38.439C0.181641 38.9195 0.625681 39.3126 1.1684 39.3126H43.5989C44.1416 39.3126 44.5856 38.9195 44.5856 38.439C44.5856 35.5561 41.9214 33.1974 38.6651 33.1974ZM25.3932 27.0822C23.3704 27.0822 21.6929 25.6407 21.6929 23.8062C21.6929 22.4521 22.6303 21.229 24.0611 20.7485C24.3572 20.6612 24.6038 20.3991 24.6532 20.0933C24.9985 18.5645 26.4787 17.4289 28.2548 17.4289C30.031 17.4289 31.5605 18.5645 31.8565 20.0933C31.9058 20.3991 32.1525 20.6612 32.4486 20.7485C33.8793 21.229 34.8168 22.4521 34.8168 23.8062C34.8168 25.597 33.1886 27.0822 31.1164 27.0822C30.4257 27.0822 29.7843 26.9074 29.1923 26.6017V23.5878C29.1923 23.1073 28.7482 22.7142 28.2055 22.7142C27.6628 22.7142 27.2187 23.1073 27.2187 23.5878V26.6017C26.7254 26.9074 26.084 27.0822 25.3932 27.0822ZM8.42105 16.3805C8.2237 16.2058 7.97701 16.1185 7.68098 16.1185C7.63165 16.1185 7.58231 16.1185 7.53297 16.1185C7.28628 16.1621 7.03959 16.1621 6.84224 16.1621C4.37535 16.1621 2.40184 14.4149 2.40184 12.2309C2.40184 11.3136 2.74721 10.44 3.3886 9.74116C3.58595 9.52276 3.68462 9.217 3.58595 8.91123C3.43793 8.56179 3.3886 8.21235 3.3886 7.86291C3.3886 6.11571 4.86873 4.5869 6.84224 4.41218C7.18761 4.3685 7.48363 4.19378 7.63165 3.88802C8.27304 2.57762 9.70383 1.74769 11.2826 1.74769C12.8615 1.74769 14.2922 2.57762 14.8843 3.84434C15.0323 4.1501 15.3777 4.3685 15.7724 4.3685C17.8939 4.41218 19.6701 5.98467 19.6701 7.86291C19.6701 8.21235 19.6207 8.56179 19.4727 8.91123C19.374 9.17332 19.4234 9.47908 19.6701 9.74116C20.3115 10.44 20.6568 11.3136 20.6568 12.2309C20.6568 14.4149 18.6833 16.1621 16.2164 16.1621C15.8711 16.1621 15.5257 16.1185 15.1803 16.0311C14.835 15.9437 14.4403 16.0748 14.1936 16.2932C13.7495 16.73 13.1575 17.0794 12.5161 17.2541V14.4149L14.3416 12.7988C14.7363 12.4493 14.7363 11.9252 14.3416 11.5757C13.9469 11.2263 13.3548 11.2263 12.9601 11.5757L11.5293 12.8424L10.1479 11.6194C9.75317 11.27 9.16112 11.27 8.76642 11.6194C8.37171 11.9688 8.37171 12.493 8.76642 12.8424L10.5919 14.4586V17.4289C9.75317 17.2541 9.0131 16.9047 8.42105 16.3805ZM2.30317 37.5654C2.69787 36.2987 3.83264 35.294 5.36211 35.0319C5.80615 34.9446 6.10218 34.6388 6.15151 34.2457C6.29953 32.6732 7.77966 31.4502 9.60516 31.4502C10.8879 31.4502 12.072 32.0617 12.6641 33.0663C12.8121 33.3284 13.1575 33.5031 13.5028 33.5468C13.8482 33.5468 14.1936 33.4158 14.3909 33.1537C14.7363 32.6295 15.3777 32.3238 16.0684 32.3238C17.1538 32.3238 18.0419 33.11 18.0419 34.071C18.0419 34.5515 18.486 34.9446 19.0287 34.9446H38.7638C40.5893 34.9446 42.1681 36.0803 42.5628 37.5654H2.30317Z" fill="#221000"/>
<path fill-rule="evenodd" clip-rule="evenodd" d="M10.5206 19.2186H12.538V19.0882C13.5971 18.9135 14.5554 18.4767 15.3623 17.8215C15.6649 17.8652 16.018 17.8652 16.3206 17.8652C19.9518 17.8652 22.877 15.3317 22.877 12.1868C22.877 11.0511 22.4735 9.91539 21.717 8.95443C21.8179 8.5613 21.8683 8.21186 21.8683 7.81874C21.8683 5.15425 19.5484 2.92657 16.5223 2.62081C15.4632 1.04832 13.4963 0 11.2772 0C9.05806 0 6.99025 1.04832 5.98157 2.75185C3.20769 3.27601 1.19032 5.37266 1.19032 7.86242C1.19032 8.25554 1.24076 8.64866 1.34163 8.99811C0.585114 9.95907 0.181641 11.0511 0.181641 12.2304C0.181641 15.3754 3.10682 17.9089 6.73808 17.9089H7.24243C8.15024 18.6077 9.31023 19.0445 10.5206 19.1756V19.2186ZM8.35198 16.38C8.15024 16.2053 7.89807 16.118 7.59547 16.118H7.44416C7.192 16.1616 6.93984 16.1616 6.73811 16.1616H6.73808C4.21637 16.1616 2.19901 14.4144 2.19901 12.2304C2.19901 11.3132 2.55205 10.4395 3.20769 9.74067C3.40943 9.52227 3.5103 9.21651 3.40943 8.91074C3.25813 8.5613 3.20769 8.21186 3.20769 7.86242C3.20769 6.11522 4.72072 4.58641 6.73808 4.41169C7.09112 4.36801 7.39373 4.19329 7.54503 3.88753C8.20068 2.57713 9.66327 1.74721 11.2772 1.74721C12.8911 1.74721 14.3536 2.57713 14.9589 3.84385C15.1102 4.14961 15.4632 4.36801 15.8667 4.36801C18.0353 4.41169 19.851 5.98418 19.851 7.86242C19.851 8.21186 19.8005 8.5613 19.6492 8.91074C19.5484 9.17283 19.5988 9.47859 19.851 9.74067C20.5066 10.4395 20.8597 11.3132 20.8597 12.2304C20.8597 14.4144 18.8423 16.1616 16.3206 16.1616C15.9675 16.1616 15.6145 16.118 15.2615 16.0306C14.9084 15.9432 14.5049 16.0743 14.2528 16.2927C14.0575 16.4806 13.8341 16.6524 13.5908 16.8011C12.9357 17.2238 12.1378 17.4719 11.2769 17.4719C11.0361 17.4719 10.8003 17.4525 10.5711 17.4153V17.4284C10.4037 17.3943 10.2402 17.3535 10.0809 17.3061C9.9241 17.2614 9.77135 17.2081 9.62334 17.1468C9.15048 16.9568 8.72282 16.7012 8.35198 16.38Z" fill="#218100"/>
<path fill-rule="evenodd" clip-rule="evenodd" d="M29.2917 28.5229V29.2611C29.1279 29.2644 28.9632 29.2661 28.7979 29.2661C28.2975 29.2661 27.8037 29.2505 27.3182 29.2202V28.5229C26.7262 28.6976 26.0355 28.8286 25.3941 28.8286C22.2364 28.8286 19.7202 26.5573 19.7202 23.8054C19.7202 21.9272 21.003 20.18 22.8778 19.3501C23.5686 17.2097 25.7888 15.7246 28.305 15.7246C30.8212 15.7246 33.0414 17.2097 33.7321 19.3501C35.6563 20.18 36.8898 21.9272 36.8898 23.8054C36.8898 26.601 34.3242 28.8286 31.2159 28.8286C30.5745 28.8286 29.8838 28.7413 29.2917 28.5229ZM25.3941 27.0814C23.3712 27.0814 21.6937 25.64 21.6937 23.8054C21.6937 22.4513 22.6311 21.2283 24.0619 20.7478C24.358 20.6605 24.6047 20.3984 24.654 20.0926C24.9994 18.5638 26.4795 17.4281 28.2557 17.4281C30.0318 17.4281 31.5613 18.5638 31.8573 20.0926C31.9066 20.3984 32.1533 20.6605 32.4494 20.7478C33.8802 21.2283 34.8176 22.4513 34.8176 23.8054C34.8176 25.5963 33.1894 27.0814 31.1172 27.0814C31.1082 27.0814 31.0991 27.0814 31.0901 27.0814C31.0656 27.0818 31.0411 27.0821 31.0164 27.0821C30.4711 27.0821 29.9576 26.9616 29.508 26.749C29.4015 26.7038 29.2965 26.6544 29.1931 26.601V26.5788C28.8379 26.3611 28.5348 26.0816 28.3036 25.7578C27.7355 26.5538 26.7328 27.0824 25.5906 27.0824C25.5521 27.0824 25.5137 27.0818 25.4755 27.0806C25.4484 27.0812 25.4213 27.0814 25.3941 27.0814ZM28.2952 22.717C28.298 22.7208 28.3007 22.7245 28.3034 22.7283C28.3058 22.725 28.3082 22.7216 28.3106 22.7183C28.3055 22.7178 28.3004 22.7174 28.2952 22.717Z" fill="#218100"/>
</svg>
